<svg width="449" height="436" viewBox="0 0 449 436" fill="none" xmlns="http://www.w3.org/2000/svg">
<path d="M93.685 197.005C93.685 197.962 93.4117 198.645 92.865 199.055C92.3183 199.328 91.635 199.26 90.815 198.85L7.79 162.155C6.56 161.472 5.945 160.515 5.945 159.285V138.375C5.945 137.008 6.56 136.052 7.79 135.505L90.815 98.81C91.3617 98.5367 91.7717 98.4 92.045 98.4C93.1383 98.4 93.685 99.1517 93.685 100.655V123C93.685 124.23 93.07 125.187 91.84 125.87L37.105 148.215C36.285 148.625 36.285 149.035 37.105 149.445L91.84 171.585C93.07 172.132 93.685 173.088 93.685 174.455V197.005Z" fill="#6767C2"/>
<path d="M162.632 206.64C151.972 206.64 142.611 204.59 134.547 200.49C126.484 196.253 120.266 190.377 115.892 182.86C111.519 175.343 109.332 166.665 109.332 156.825V109.47C109.332 99.63 111.519 90.9517 115.892 83.435C120.266 75.9183 126.484 70.11 134.547 66.01C142.611 61.91 151.972 59.86 162.632 59.86C173.156 59.86 182.381 61.8417 190.307 65.805C198.371 69.6317 204.589 75.1667 208.962 82.41C213.472 89.5167 215.727 97.785 215.727 107.215C215.727 108.445 214.907 109.197 213.267 109.47L189.282 110.905H188.872C187.506 110.905 186.822 110.153 186.822 108.65C186.822 101.407 184.567 95.5983 180.057 91.225C175.684 86.8517 169.876 84.665 162.632 84.665C155.252 84.665 149.307 86.8517 144.797 91.225C140.424 95.5983 138.237 101.407 138.237 108.65V158.055C138.237 165.162 140.424 170.902 144.797 175.275C149.307 179.648 155.252 181.835 162.632 181.835C169.876 181.835 175.684 179.648 180.057 175.275C184.567 170.902 186.822 165.162 186.822 158.055C186.822 156.552 187.642 155.8 189.282 155.8L213.267 156.825C213.951 156.825 214.497 157.03 214.907 157.44C215.454 157.85 215.727 158.328 215.727 158.875C215.727 168.305 213.472 176.642 208.962 183.885C204.589 191.128 198.371 196.732 190.307 200.695C182.381 204.658 173.156 206.64 162.632 206.64ZM287.969 207.255C277.309 207.255 267.879 205.068 259.679 200.695C251.616 196.322 245.329 190.24 240.819 182.45C236.309 174.523 234.054 165.435 234.054 155.185V111.315C234.054 101.202 236.309 92.25 240.819 84.46C245.329 76.67 251.616 70.6567 259.679 66.42C267.879 62.0467 277.309 59.86 287.969 59.86C298.766 59.86 308.196 62.0467 316.259 66.42C324.459 70.6567 330.814 76.67 335.324 84.46C339.834 92.25 342.089 101.202 342.089 111.315V155.185C342.089 165.435 339.834 174.523 335.324 182.45C330.814 190.377 324.459 196.527 316.259 200.9C308.196 205.137 298.766 207.255 287.969 207.255ZM287.969 182.45C295.486 182.45 301.567 180.058 306.214 175.275C310.861 170.492 313.184 164.137 313.184 156.21V111.11C313.184 103.183 310.861 96.8283 306.214 92.045C301.704 87.125 295.622 84.665 287.969 84.665C280.452 84.665 274.371 87.125 269.724 92.045C265.214 96.8283 262.959 103.183 262.959 111.11V156.21C262.959 164.137 265.214 170.492 269.724 175.275C274.371 180.058 280.452 182.45 287.969 182.45Z" fill="white"/>
<path d="M116.965 395C116.282 395 115.667 394.795 115.12 394.385C114.71 393.838 114.505 393.223 114.505 392.54V253.96C114.505 253.277 114.71 252.73 115.12 252.32C115.667 251.773 116.282 251.5 116.965 251.5H168.215C178.465 251.5 187.417 253.345 195.07 257.035C202.86 260.588 208.873 265.645 213.11 272.205C217.347 278.765 219.465 286.35 219.465 294.96V351.54C219.465 360.15 217.347 367.735 213.11 374.295C208.873 380.855 202.86 385.98 195.07 389.67C187.417 393.223 178.465 395 168.215 395H116.965ZM143.41 369.17C143.41 369.853 143.752 370.195 144.435 370.195H169.24C175.527 370.195 180.583 368.077 184.41 363.84C188.373 359.603 190.423 353.932 190.56 346.825V299.675C190.56 292.568 188.578 286.897 184.615 282.66C180.788 278.423 175.595 276.305 169.035 276.305H144.435C143.752 276.305 143.41 276.647 143.41 277.33V369.17ZM340.859 273.845C340.859 274.528 340.585 275.143 340.039 275.69C339.629 276.1 339.082 276.305 338.399 276.305H271.159C270.475 276.305 270.134 276.647 270.134 277.33V309.105C270.134 309.788 270.475 310.13 271.159 310.13H315.234C315.917 310.13 316.464 310.403 316.874 310.95C317.42 311.36 317.694 311.907 317.694 312.59V332.475C317.694 333.158 317.42 333.773 316.874 334.32C316.464 334.73 315.917 334.935 315.234 334.935H271.159C270.475 334.935 270.134 335.277 270.134 335.96V369.17C270.134 369.853 270.475 370.195 271.159 370.195H338.399C339.082 370.195 339.629 370.468 340.039 371.015C340.585 371.425 340.859 371.972 340.859 372.655V392.54C340.859 393.223 340.585 393.838 340.039 394.385C339.629 394.795 339.082 395 338.399 395H243.689C243.005 395 242.39 394.795 241.844 394.385C241.434 393.838 241.229 393.223 241.229 392.54V253.96C241.229 253.277 241.434 252.73 241.844 252.32C242.39 251.773 243.005 251.5 243.689 251.5H338.399C339.082 251.5 339.629 251.773 340.039 252.32C340.585 252.73 340.859 253.277 340.859 253.96V273.845Z" fill="white"/>
<path d="M357.255 388.85C356.709 389.123 356.299 389.26 356.025 389.26C354.932 389.26 354.385 388.508 354.385 387.005V364.455C354.385 363.088 355 362.132 356.23 361.585L410.965 339.445C411.785 339.035 411.785 338.625 410.965 338.215L356.23 315.87C355 315.187 354.385 314.23 354.385 313V290.655C354.385 289.698 354.659 289.083 355.205 288.81C355.752 288.4 356.435 288.4 357.255 288.81L440.28 325.505C441.51 326.052 442.125 327.008 442.125 328.375V349.285C442.125 350.515 441.51 351.472 440.28 352.155L357.255 388.85Z" fill="#6767C2"/>
</svg>
