<svg width="50" height="50" viewBox="0 0 50 50" fill="none" xmlns="http://www.w3.org/2000/svg">
<path d="M25 0.181824C11.0398 0.181824 0.181824 11.39 0.181824 25.8006C0.181824 42.6129 14.9176 49.8182 17.2443 49.8182C18.7955 49.8182 18.7955 49.0176 18.7955 48.217V44.2141C13.3665 45.8153 11.0398 42.6129 10.2642 40.2112C10.2642 40.2112 10.2642 39.4106 8.71307 37.8094C7.93751 37.0088 4.83523 35.4076 7.93751 35.4076C10.2642 35.4076 11.8153 38.61 11.8153 38.61C14.1421 41.8123 17.2443 41.0117 18.7955 40.2112C18.7955 38.61 20.3466 37.0088 20.3466 37.0088C14.1421 36.2082 9.48864 33.8065 9.48864 25C9.48864 21.7977 10.2642 19.3959 11.8153 17.7947C11.8153 17.7947 10.2642 14.5924 11.8153 10.5894C11.8153 10.5894 15.6932 10.5894 18.7955 13.7918C21.1222 12.1906 28.8778 12.1906 31.2046 13.7918C34.3068 10.5894 38.1847 10.5894 38.1847 10.5894C39.7358 16.1936 38.1847 17.7947 38.1847 17.7947C39.7358 19.3959 40.5114 21.7977 40.5114 25C40.5114 33.8065 35.0824 36.2082 29.6534 37.0088C30.429 37.8094 31.2046 39.4106 31.2046 41.8123V48.217C31.2046 49.0176 31.2046 49.8182 32.7557 49.8182C35.0824 49.8182 49.8182 42.6129 49.8182 25.8006C49.8182 11.39 38.9602 0.181824 25 0.181824Z" fill="#6767C2"/>
</svg>
