<svg width="50" height="50" viewBox="0 0 50 50" fill="none" xmlns="http://www.w3.org/2000/svg">
<path d="M25 19.0269C23.7827 19.0269 22.5927 19.3879 21.5805 20.0642C20.5684 20.7405 19.7795 21.7018 19.3136 22.8264C18.8478 23.9511 18.7259 25.1887 18.9634 26.3826C19.2008 27.5765 19.787 28.6732 20.6478 29.534C21.5086 30.3948 22.6053 30.981 23.7992 31.2185C24.9932 31.456 26.2307 31.3341 27.3554 30.8682C28.48 30.4024 29.4413 29.6135 30.1176 28.6013C30.7939 27.5891 31.1549 26.3992 31.1549 25.1818C31.1549 24.3736 30.9957 23.5732 30.6864 22.8264C30.3771 22.0797 29.9237 21.4012 29.3522 20.8297C28.7806 20.2581 28.1021 19.8047 27.3554 19.4954C26.6086 19.1861 25.8083 19.0269 25 19.0269ZM49.6445 12.9465C49.6314 11.0299 49.2785 9.13085 48.6021 7.33756C48.104 6.02532 47.3332 4.83363 46.3407 3.84113C45.3482 2.84863 44.1565 2.07788 42.8443 1.57974C41.051 0.903353 39.1519 0.550431 37.2354 0.537375C34.0338 0.363647 33.0907 0.363647 25 0.363647C16.9093 0.363647 15.9662 0.363647 12.7646 0.537375C10.8481 0.550431 8.94902 0.903353 7.15573 1.57974C5.8435 2.07788 4.65181 2.84863 3.65931 3.84113C2.66681 4.83363 1.89606 6.02532 1.39791 7.33756C0.721529 9.13085 0.368608 11.0299 0.355551 12.9465C0.181824 16.148 0.181824 17.0911 0.181824 25.1818C0.181824 33.2726 0.181824 34.2156 0.355551 37.4172C0.382265 39.3405 0.734709 41.2454 1.39791 43.0509C1.89385 44.3572 2.66396 45.5419 3.65637 46.5255C4.64461 47.5239 5.83885 48.2947 7.15573 48.7839C8.94902 49.4603 10.8481 49.8132 12.7646 49.8263C15.9662 50 16.9093 50 25 50C33.0907 50 34.0338 50 37.2354 49.8263C39.1519 49.8132 41.051 49.4603 42.8443 48.7839C44.1612 48.2947 45.3554 47.5239 46.3436 46.5255C47.3361 45.5419 48.1062 44.3572 48.6021 43.0509C49.2778 41.2488 49.6307 39.3418 49.6445 37.4172C49.8182 34.2156 49.8182 33.2726 49.8182 25.1818C49.8182 17.0911 49.8182 16.148 49.6445 12.9465ZM43.3406 32.801C43.261 34.3326 42.9341 35.8411 42.3727 37.2683C41.8909 38.4588 41.1747 39.5402 40.2665 40.4484C39.3584 41.3565 38.277 42.0728 37.0865 42.5546C35.6458 43.0847 34.1288 43.378 32.5944 43.4232H17.4056C15.8712 43.378 14.3542 43.0847 12.9136 42.5546C11.6828 42.0972 10.5714 41.3676 9.66237 40.4202C8.76312 39.5298 8.06866 38.4543 7.62728 37.2683C7.09507 35.8291 6.80978 34.3104 6.78346 32.7762V25.1818V17.5875C6.80978 16.0533 7.09507 14.5345 7.62728 13.0954C8.08463 11.8646 8.81427 10.7532 9.76164 9.84419C10.6559 8.9498 11.7304 8.25606 12.9136 7.8091C14.3542 7.279 15.8712 6.98566 17.4056 6.94047H32.5944C34.1288 6.98566 35.6458 7.279 37.0865 7.8091C38.3172 8.26645 39.4286 8.99609 40.3376 9.94347C41.2369 10.8338 41.9314 11.9094 42.3727 13.0954C42.9028 14.536 43.1962 16.053 43.2414 17.5875V25.1818C43.2414 30.2944 43.4151 30.8156 43.3406 32.7762V32.801ZM39.3697 14.3363C39.0742 13.5346 38.6083 12.8066 38.0042 12.2025C37.4001 11.5983 36.672 11.1324 35.8704 10.8369C34.7696 10.4554 33.6103 10.2705 32.4455 10.2909H17.5546C16.3838 10.3024 15.2243 10.5208 14.1296 10.9362C13.3402 11.2183 12.6199 11.6651 12.0166 12.2471C11.4132 12.829 10.9407 13.5328 10.6303 14.3115C10.2699 15.4168 10.0938 16.5739 10.1091 17.7364V32.6273C10.1337 33.7967 10.3517 34.954 10.7544 36.0522C11.0499 36.8539 11.5158 37.5819 12.1199 38.186C12.724 38.7902 13.4521 39.2561 14.2537 39.5516C15.3126 39.941 16.4269 40.1588 17.5546 40.1968H32.4455C33.6162 40.1854 34.7757 39.9669 35.8704 39.5516C36.672 39.2561 37.4001 38.7902 38.0042 38.186C38.6083 37.5819 39.0742 36.8539 39.3697 36.0522C39.7851 34.9575 40.0036 33.798 40.015 32.6273V25.1818V17.7364C40.0157 16.5645 39.7969 15.4028 39.3697 14.3115V14.3363ZM25 34.6624C23.7562 34.6624 22.5246 34.417 21.3757 33.9402C20.2269 33.4635 19.1834 32.7648 18.305 31.8841C17.4266 31.0034 16.7307 29.9581 16.2569 28.808C15.7832 27.6579 15.541 26.4257 15.5443 25.1818C15.5443 23.3057 16.1009 21.4718 17.1438 19.9121C18.1866 18.3525 19.6687 17.1374 21.4025 16.4206C23.1363 15.7038 25.0438 15.5175 26.8835 15.8853C28.7233 16.2531 30.4125 17.1585 31.7374 18.4869C33.0622 19.8153 33.9632 21.5068 34.3262 23.3475C34.6892 25.1882 34.4979 27.0952 33.7766 28.8271C33.0552 30.559 31.8362 32.0379 30.2739 33.0767C28.7115 34.1154 26.8761 34.6673 25 34.6624ZM34.9273 17.5626C34.3787 17.5046 33.8709 17.2455 33.5019 16.8354C33.1329 16.4253 32.9288 15.8931 32.9288 15.3414C32.9288 14.7897 33.1329 14.2576 33.5019 13.8474C33.8709 13.4373 34.3787 13.1783 34.9273 13.1202C35.4759 13.1783 35.9836 13.4373 36.3526 13.8474C36.7216 14.2576 36.9258 14.7897 36.9258 15.3414C36.9258 15.8931 36.7216 16.4253 36.3526 16.8354C35.9836 17.2455 35.4759 17.5046 34.9273 17.5626Z" fill="#6767C2"/>
</svg>
