<svg width="50" height="50" viewBox="0 0 50 50" fill="none" xmlns="http://www.w3.org/2000/svg">
<path d="M0.181824 0V49.6364H49.8182V0H0.181824ZM12.3546 9.75822C14.3206 9.78035 16.2573 11.1367 16.3415 13.4846C16.3835 15.5724 14.5641 17.1627 12.3031 17.211H12.2486C10.3021 17.1885 8.40127 15.7981 8.31317 13.4846C8.34093 11.42 10.0764 9.80719 12.3546 9.75822ZM33.4464 19.6225C35.6079 19.6359 37.6478 20.2771 39.3238 21.9856C41.0654 23.928 41.6246 26.6063 41.6868 29.3292V41.7141H34.5492V30.1714C34.5333 28.008 33.7922 25.3783 30.9289 25.2908C29.2507 25.3087 28.0673 26.2838 27.257 27.9144C27.0358 28.4392 27.004 29.0425 26.9934 29.6443V41.7141H19.8588C19.8861 35.6801 19.9237 29.6465 19.9103 23.6124C19.9103 21.8984 19.8938 20.7443 19.8588 20.1496H26.9934V23.1913C27.599 22.33 28.2707 21.5131 29.1717 20.8555C30.3937 19.9834 31.8618 19.649 33.4464 19.6225ZM8.73429 20.1496H15.8689V41.7141H8.73429V20.1496Z" fill="#6767C2"/>
</svg>
