<svg width="233" height="79" viewBox="0 0 233 79" fill="none" xmlns="http://www.w3.org/2000/svg">
<path d="M99.472 16.6942C99.472 16.8008 99.4293 16.8968 99.344 16.9822C99.28 17.0462 99.1947 17.0782 99.088 17.0782H88.624C88.5173 17.0782 88.464 17.1315 88.464 17.2382V22.1982C88.464 22.3048 88.5173 22.3582 88.624 22.3582H95.504C95.6107 22.3582 95.696 22.4008 95.76 22.4862C95.8453 22.5502 95.888 22.6355 95.888 22.7422V25.8462C95.888 25.9528 95.8453 26.0488 95.76 26.1342C95.696 26.1982 95.6107 26.2302 95.504 26.2302H88.624C88.5173 26.2302 88.464 26.2835 88.464 26.3902V35.2222C88.464 35.3288 88.4213 35.4248 88.336 35.5102C88.272 35.5742 88.1867 35.6062 88.08 35.6062H84.336C84.2293 35.6062 84.1333 35.5742 84.048 35.5102C83.984 35.4248 83.952 35.3288 83.952 35.2222V13.5902C83.952 13.4835 83.984 13.3982 84.048 13.3342C84.1333 13.2488 84.2293 13.2062 84.336 13.2062H99.088C99.1947 13.2062 99.28 13.2488 99.344 13.3342C99.4293 13.3982 99.472 13.4835 99.472 13.5902V16.6942ZM117.41 16.6942C117.41 16.8008 117.368 16.8968 117.282 16.9822C117.218 17.0462 117.133 17.0782 117.026 17.0782H106.53C106.424 17.0782 106.37 17.1315 106.37 17.2382V22.1982C106.37 22.3048 106.424 22.3582 106.53 22.3582H113.41C113.517 22.3582 113.602 22.4008 113.666 22.4862C113.752 22.5502 113.794 22.6355 113.794 22.7422V25.8462C113.794 25.9528 113.752 26.0488 113.666 26.1342C113.602 26.1982 113.517 26.2302 113.41 26.2302H106.53C106.424 26.2302 106.37 26.2835 106.37 26.3902V31.5742C106.37 31.6808 106.424 31.7342 106.53 31.7342H117.026C117.133 31.7342 117.218 31.7768 117.282 31.8622C117.368 31.9262 117.41 32.0115 117.41 32.1182V35.2222C117.41 35.3288 117.368 35.4248 117.282 35.5102C117.218 35.5742 117.133 35.6062 117.026 35.6062H102.242C102.136 35.6062 102.04 35.5742 101.954 35.5102C101.89 35.4248 101.858 35.3288 101.858 35.2222V13.5902C101.858 13.4835 101.89 13.3982 101.954 13.3342C102.04 13.2488 102.136 13.2062 102.242 13.2062H117.026C117.133 13.2062 117.218 13.2488 117.282 13.3342C117.368 13.3982 117.41 13.4835 117.41 13.5902V16.6942ZM132.834 35.6062C132.62 35.6062 132.471 35.5102 132.386 35.3182L128.386 26.4542C128.343 26.3688 128.279 26.3262 128.194 26.3262H125.218C125.111 26.3262 125.058 26.3795 125.058 26.4862V35.2222C125.058 35.3288 125.015 35.4248 124.93 35.5102C124.866 35.5742 124.78 35.6062 124.674 35.6062H120.93C120.823 35.6062 120.727 35.5742 120.642 35.5102C120.578 35.4248 120.546 35.3288 120.546 35.2222V13.5902C120.546 13.4835 120.578 13.3982 120.642 13.3342C120.727 13.2488 120.823 13.2062 120.93 13.2062H130.082C131.447 13.2062 132.642 13.4835 133.666 14.0382C134.711 14.5928 135.511 15.3822 136.066 16.4062C136.642 17.4302 136.93 18.6142 136.93 19.9582C136.93 21.4088 136.567 22.6568 135.842 23.7022C135.116 24.7262 134.103 25.4515 132.802 25.8782C132.695 25.9208 132.663 25.9955 132.706 26.1022L137.058 35.1582C137.1 35.2435 137.122 35.3075 137.122 35.3502C137.122 35.5208 137.004 35.6062 136.77 35.6062H132.834ZM125.218 17.0782C125.111 17.0782 125.058 17.1315 125.058 17.2382V22.7102C125.058 22.8168 125.111 22.8702 125.218 22.8702H129.41C130.306 22.8702 131.031 22.6035 131.586 22.0702C132.162 21.5368 132.45 20.8435 132.45 19.9902C132.45 19.1368 132.162 18.4435 131.586 17.9102C131.031 17.3555 130.306 17.0782 129.41 17.0782H125.218ZM152.49 35.6062C152.277 35.6062 152.127 35.5102 152.042 35.3182L148.042 26.4542C147.999 26.3688 147.935 26.3262 147.85 26.3262H144.874C144.767 26.3262 144.714 26.3795 144.714 26.4862V35.2222C144.714 35.3288 144.671 35.4248 144.586 35.5102C144.522 35.5742 144.437 35.6062 144.33 35.6062H140.586C140.479 35.6062 140.383 35.5742 140.298 35.5102C140.234 35.4248 140.202 35.3288 140.202 35.2222V13.5902C140.202 13.4835 140.234 13.3982 140.298 13.3342C140.383 13.2488 140.479 13.2062 140.586 13.2062H149.738C151.103 13.2062 152.298 13.4835 153.322 14.0382C154.367 14.5928 155.167 15.3822 155.722 16.4062C156.298 17.4302 156.586 18.6142 156.586 19.9582C156.586 21.4088 156.223 22.6568 155.498 23.7022C154.773 24.7262 153.759 25.4515 152.458 25.8782C152.351 25.9208 152.319 25.9955 152.362 26.1022L156.714 35.1582C156.757 35.2435 156.778 35.3075 156.778 35.3502C156.778 35.5208 156.661 35.6062 156.426 35.6062H152.49ZM144.874 17.0782C144.767 17.0782 144.714 17.1315 144.714 17.2382V22.7102C144.714 22.8168 144.767 22.8702 144.874 22.8702H149.066C149.962 22.8702 150.687 22.6035 151.242 22.0702C151.818 21.5368 152.106 20.8435 152.106 19.9902C152.106 19.1368 151.818 18.4435 151.242 17.9102C150.687 17.3555 149.962 17.0782 149.066 17.0782H144.874ZM175.41 16.6942C175.41 16.8008 175.368 16.8968 175.282 16.9822C175.218 17.0462 175.133 17.0782 175.026 17.0782H164.53C164.424 17.0782 164.37 17.1315 164.37 17.2382V22.1982C164.37 22.3048 164.424 22.3582 164.53 22.3582H171.41C171.517 22.3582 171.602 22.4008 171.666 22.4862C171.752 22.5502 171.794 22.6355 171.794 22.7422V25.8462C171.794 25.9528 171.752 26.0488 171.666 26.1342C171.602 26.1982 171.517 26.2302 171.41 26.2302H164.53C164.424 26.2302 164.37 26.2835 164.37 26.3902V31.5742C164.37 31.6808 164.424 31.7342 164.53 31.7342H175.026C175.133 31.7342 175.218 31.7768 175.282 31.8622C175.368 31.9262 175.41 32.0115 175.41 32.1182V35.2222C175.41 35.3288 175.368 35.4248 175.282 35.5102C175.218 35.5742 175.133 35.6062 175.026 35.6062H160.242C160.136 35.6062 160.04 35.5742 159.954 35.5102C159.89 35.4248 159.858 35.3288 159.858 35.2222V13.5902C159.858 13.4835 159.89 13.3982 159.954 13.3342C160.04 13.2488 160.136 13.2062 160.242 13.2062H175.026C175.133 13.2062 175.218 13.2488 175.282 13.3342C175.368 13.3982 175.41 13.4835 175.41 13.5902V16.6942ZM178.93 35.6062C178.823 35.6062 178.727 35.5742 178.642 35.5102C178.578 35.4248 178.546 35.3288 178.546 35.2222V13.5902C178.546 13.4835 178.578 13.3982 178.642 13.3342C178.727 13.2488 178.823 13.2062 178.93 13.2062H182.674C182.78 13.2062 182.866 13.2488 182.93 13.3342C183.015 13.3982 183.058 13.4835 183.058 13.5902V35.2222C183.058 35.3288 183.015 35.4248 182.93 35.5102C182.866 35.5742 182.78 35.6062 182.674 35.6062H178.93ZM199.24 35.6062C199.027 35.6062 198.877 35.5102 198.792 35.3182L194.792 26.4542C194.749 26.3688 194.685 26.3262 194.6 26.3262H191.624C191.517 26.3262 191.464 26.3795 191.464 26.4862V35.2222C191.464 35.3288 191.421 35.4248 191.336 35.5102C191.272 35.5742 191.187 35.6062 191.08 35.6062H187.336C187.229 35.6062 187.133 35.5742 187.048 35.5102C186.984 35.4248 186.952 35.3288 186.952 35.2222V13.5902C186.952 13.4835 186.984 13.3982 187.048 13.3342C187.133 13.2488 187.229 13.2062 187.336 13.2062H196.488C197.853 13.2062 199.048 13.4835 200.072 14.0382C201.117 14.5928 201.917 15.3822 202.472 16.4062C203.048 17.4302 203.336 18.6142 203.336 19.9582C203.336 21.4088 202.973 22.6568 202.248 23.7022C201.523 24.7262 200.509 25.4515 199.208 25.8782C199.101 25.9208 199.069 25.9955 199.112 26.1022L203.464 35.1582C203.507 35.2435 203.528 35.3075 203.528 35.3502C203.528 35.5208 203.411 35.6062 203.176 35.6062H199.24ZM191.624 17.0782C191.517 17.0782 191.464 17.1315 191.464 17.2382V22.7102C191.464 22.8168 191.517 22.8702 191.624 22.8702H195.816C196.712 22.8702 197.437 22.6035 197.992 22.0702C198.568 21.5368 198.856 20.8435 198.856 19.9902C198.856 19.1368 198.568 18.4435 197.992 17.9102C197.437 17.3555 196.712 17.0782 195.816 17.0782H191.624ZM221.317 35.6062C221.104 35.6062 220.965 35.4995 220.901 35.2862L219.941 32.1502C219.898 32.0648 219.845 32.0222 219.781 32.0222H211.909C211.845 32.0222 211.792 32.0648 211.749 32.1502L210.821 35.2862C210.757 35.4995 210.618 35.6062 210.405 35.6062H206.341C206.213 35.6062 206.117 35.5742 206.053 35.5102C205.989 35.4248 205.978 35.3075 206.021 35.1582L212.933 13.5262C212.997 13.3128 213.136 13.2062 213.349 13.2062H218.373C218.586 13.2062 218.725 13.3128 218.789 13.5262L225.701 35.1582C225.722 35.2008 225.733 35.2542 225.733 35.3182C225.733 35.5102 225.616 35.6062 225.381 35.6062H221.317ZM212.901 28.3422C212.88 28.4702 212.922 28.5342 213.029 28.5342H218.661C218.789 28.5342 218.832 28.4702 218.789 28.3422L215.909 18.8382C215.888 18.7528 215.856 18.7208 215.813 18.7422C215.77 18.7422 215.738 18.7742 215.717 18.8382L212.901 28.3422ZM91.824 73.8622C90.16 73.8622 88.6987 73.5422 87.44 72.9022C86.1813 72.2408 85.2107 71.3235 84.528 70.1502C83.8453 68.9768 83.504 67.6222 83.504 66.0862V58.6942C83.504 57.1582 83.8453 55.8035 84.528 54.6302C85.2107 53.4568 86.1813 52.5502 87.44 51.9102C88.6987 51.2702 90.16 50.9502 91.824 50.9502C93.4667 50.9502 94.9067 51.2595 96.144 51.8782C97.4027 52.4755 98.3733 53.3395 99.056 54.4702C99.76 55.5795 100.112 56.8702 100.112 58.3422C100.112 58.5342 99.984 58.6515 99.728 58.6942L95.984 58.9182H95.92C95.7067 58.9182 95.6 58.8008 95.6 58.5662C95.6 57.4355 95.248 56.5288 94.544 55.8462C93.8613 55.1635 92.9547 54.8222 91.824 54.8222C90.672 54.8222 89.744 55.1635 89.04 55.8462C88.3573 56.5288 88.016 57.4355 88.016 58.5662V66.2782C88.016 67.3875 88.3573 68.2835 89.04 68.9662C89.744 69.6488 90.672 69.9902 91.824 69.9902C92.9547 69.9902 93.8613 69.6488 94.544 68.9662C95.248 68.2835 95.6 67.3875 95.6 66.2782C95.6 66.0435 95.728 65.9262 95.984 65.9262L99.728 66.0862C99.8347 66.0862 99.92 66.1182 99.984 66.1822C100.069 66.2462 100.112 66.3208 100.112 66.4062C100.112 67.8782 99.76 69.1795 99.056 70.3102C98.3733 71.4408 97.4027 72.3155 96.144 72.9342C94.9067 73.5528 93.4667 73.8622 91.824 73.8622ZM111.389 73.9582C109.725 73.9582 108.253 73.6168 106.973 72.9342C105.714 72.2515 104.733 71.3022 104.029 70.0862C103.325 68.8488 102.973 67.4302 102.973 65.8302V58.9822C102.973 57.4035 103.325 56.0062 104.029 54.7902C104.733 53.5742 105.714 52.6355 106.973 51.9742C108.253 51.2915 109.725 50.9502 111.389 50.9502C113.074 50.9502 114.546 51.2915 115.805 51.9742C117.085 52.6355 118.077 53.5742 118.781 54.7902C119.485 56.0062 119.837 57.4035 119.837 58.9822V65.8302C119.837 67.4302 119.485 68.8488 118.781 70.0862C118.077 71.3235 117.085 72.2835 115.805 72.9662C114.546 73.6275 113.074 73.9582 111.389 73.9582ZM111.389 70.0862C112.562 70.0862 113.511 69.7128 114.237 68.9662C114.962 68.2195 115.325 67.2275 115.325 65.9902V58.9502C115.325 57.7128 114.962 56.7208 114.237 55.9742C113.533 55.2062 112.583 54.8222 111.389 54.8222C110.215 54.8222 109.266 55.2062 108.541 55.9742C107.837 56.7208 107.485 57.7128 107.485 58.9502V65.9902C107.485 67.2275 107.837 68.2195 108.541 68.9662C109.266 69.7128 110.215 70.0862 111.389 70.0862ZM123.68 73.6062C123.573 73.6062 123.477 73.5742 123.392 73.5102C123.328 73.4248 123.296 73.3288 123.296 73.2222V51.5902C123.296 51.4835 123.328 51.3982 123.392 51.3342C123.477 51.2488 123.573 51.2062 123.68 51.2062H131.68C133.28 51.2062 134.677 51.4942 135.872 52.0702C137.088 52.6248 138.026 53.4142 138.688 54.4382C139.349 55.4622 139.68 56.6462 139.68 57.9902V66.8222C139.68 68.1662 139.349 69.3502 138.688 70.3742C138.026 71.3982 137.088 72.1982 135.872 72.7742C134.677 73.3288 133.28 73.6062 131.68 73.6062H123.68ZM127.808 69.5742C127.808 69.6808 127.861 69.7342 127.968 69.7342H131.84C132.821 69.7342 133.61 69.4035 134.208 68.7422C134.826 68.0808 135.146 67.1955 135.168 66.0862V58.7262C135.168 57.6168 134.858 56.7315 134.24 56.0702C133.642 55.4088 132.832 55.0782 131.808 55.0782H127.968C127.861 55.0782 127.808 55.1315 127.808 55.2382V69.5742ZM158.629 54.6942C158.629 54.8008 158.586 54.8968 158.501 54.9822C158.437 55.0462 158.352 55.0782 158.245 55.0782H147.749C147.642 55.0782 147.589 55.1315 147.589 55.2382V60.1982C147.589 60.3048 147.642 60.3582 147.749 60.3582H154.629C154.736 60.3582 154.821 60.4008 154.885 60.4862C154.97 60.5502 155.013 60.6355 155.013 60.7422V63.8462C155.013 63.9528 154.97 64.0488 154.885 64.1342C154.821 64.1982 154.736 64.2302 154.629 64.2302H147.749C147.642 64.2302 147.589 64.2835 147.589 64.3902V69.5742C147.589 69.6808 147.642 69.7342 147.749 69.7342H158.245C158.352 69.7342 158.437 69.7768 158.501 69.8622C158.586 69.9262 158.629 70.0115 158.629 70.1182V73.2222C158.629 73.3288 158.586 73.4248 158.501 73.5102C158.437 73.5742 158.352 73.6062 158.245 73.6062H143.461C143.354 73.6062 143.258 73.5742 143.173 73.5102C143.109 73.4248 143.077 73.3288 143.077 73.2222V51.5902C143.077 51.4835 143.109 51.3982 143.173 51.3342C143.258 51.2488 143.354 51.2062 143.461 51.2062H158.245C158.352 51.2062 158.437 51.2488 158.501 51.3342C158.586 51.3982 158.629 51.4835 158.629 51.5902V54.6942Z" fill="white"/>
<path d="M30.8173 41.3744V54.874H19.6354V41.4541H30.8173" fill="#6767C2"/>
<path d="M30.8173 33.8285L19.6354 33.7842V21.0101H46.3109V28.326H30.8173V33.8285Z" fill="#6767C2"/>
<path d="M30.8173 33.8285H44.495V41.3744H30.8173V37.2166V33.8285Z" fill="#6767C2"/>
<path d="M11.5666 11.4383V66.9316H54.3708V11.4383H66V78.3699H0V0H54.4066L54.3529 11.5003L11.5666 11.4383Z" fill="#6767C2"/>
</svg>
