<svg width="30" height="52" viewBox="0 0 30 52" fill="none" xmlns="http://www.w3.org/2000/svg">
<path fill-rule="evenodd" clip-rule="evenodd" d="M26.2271 0H4.73817C2.60568 0 0.9653 1.80442 0.9653 3.77287V48.2271C0.9653 50.3596 2.60568 52 4.73817 52H26.2271C28.1956 52 30 50.3596 30 48.2271V3.77287C30 1.80442 28.1956 0 26.2271 0ZM26.2271 8.20189H4.73817C3.91798 8.20189 3.42587 8.85804 3.42587 9.5142V42.4858C3.42587 43.142 3.91798 43.7981 4.73817 43.7981H26.2271C26.8833 43.7981 27.5394 43.142 27.5394 42.4858V9.5142C27.5394 8.85804 26.8833 8.20189 26.2271 8.20189ZM15.4006 45.4385C14.0883 45.4385 12.9401 46.5868 12.9401 47.8991C12.9401 49.3754 14.0883 50.5237 15.4006 50.5237C16.877 50.5237 18.0252 49.3754 18.0252 47.8991C18.0252 46.5868 16.877 45.4385 15.4006 45.4385Z" fill="white"/>
</svg>
