<svg width="30" height="49" viewBox="0 0 30 49" fill="none" xmlns="http://www.w3.org/2000/svg">
<path d="M15 49C6.74999 49 0 42.2625 0 34.0278V14.9722C0 6.7375 6.74999 0 15 0C23.25 0 30 6.7375 30 14.9722V34.0278C30 42.2625 23.25 49 15 49ZM15 2.72222C8.24999 2.72222 2.72727 8.23472 2.72727 14.9722V34.0278C2.72727 40.7653 8.24999 46.2778 15 46.2778C21.75 46.2778 27.2727 40.7653 27.2727 34.0278V14.9722C27.2727 8.23472 21.75 2.72222 15 2.72222Z" fill="#6767C2"/>
<path d="M15 17.0139C14.25 17.0139 13.6364 16.4014 13.6364 15.6528V10.2083C13.6364 9.45973 14.25 8.84723 15 8.84723C15.75 8.84723 16.3636 9.45973 16.3636 10.2083V15.6528C16.3636 16.4014 15.75 17.0139 15 17.0139Z" fill="#6767C2"/>
</svg>
