<svg width="65" height="38" viewBox="0 0 65 38" fill="none" xmlns="http://www.w3.org/2000/svg">
<path d="M64.5002 13.3349V13.2228C64.5002 12.881 64.3323 12.5612 64.0511 12.367L46.4188 0.184583C46.1669 0.00984125 45.8503 -0.0433942 45.5569 0.0358493L0.769678 12.1065C0.315349 12.2288 0 12.6409 0 13.111V13.2228C0 13.5645 0.167834 13.8844 0.44864 14.0786L4.49331 16.8764L0.768865 17.8839C0.314942 18.0067 0 18.4183 0 18.8881V18.9998C0 19.3416 0.167834 19.6614 0.44864 19.8557L4.49321 22.6535L0.768865 23.661C0.314942 23.7837 0 24.1954 0 24.6651V24.7769C0 25.1187 0.167834 25.4385 0.44864 25.6327L18.0724 37.8155C18.248 37.937 18.4548 38 18.6641 38C18.7547 38 18.8457 37.9882 18.9347 37.9642L63.7305 25.8936C64.1848 25.7713 64.5002 25.3592 64.5002 24.8891V24.7769C64.5002 24.4351 64.3323 24.1149 64.0511 23.9207L59.9989 21.1225L63.7309 20.1162C64.1848 19.9938 64.5002 19.5822 64.5002 19.112V18.9998C64.5002 18.6581 64.3323 18.3379 64.0511 18.1436L59.9989 15.3454L63.7309 14.3391C64.1848 14.2168 64.5002 13.8051 64.5002 13.3349ZM57.3678 21.8343L61.1374 24.4376L18.8591 35.8295L3.35952 25.1154L6.73326 24.203L18.072 32.0466C18.1506 32.1008 18.2365 32.1391 18.325 32.1697C18.3503 32.1785 18.3754 32.1848 18.4013 32.1916C18.4722 32.2101 18.544 32.221 18.6173 32.2244C18.6332 32.2251 18.6482 32.2315 18.6641 32.2315C18.6711 32.2315 18.6782 32.2288 18.6852 32.2287C18.7688 32.2271 18.8524 32.2178 18.9347 32.1957L57.3678 21.8343ZM57.3678 16.0573L61.1386 18.6613L18.8591 30.061L7.52123 22.2167C7.5193 22.2154 7.51711 22.2148 7.51518 22.2135L3.35911 19.3384L6.73336 18.4259L18.0724 26.2695C18.1507 26.3237 18.2364 26.3619 18.3247 26.3924C18.3504 26.4014 18.3758 26.4077 18.4021 26.4146C18.4721 26.4329 18.5429 26.4436 18.6153 26.447C18.6318 26.4478 18.6475 26.4544 18.6641 26.4544C18.6715 26.4544 18.6788 26.4516 18.6862 26.4515C18.7694 26.4497 18.8528 26.4405 18.9347 26.4187L57.3678 16.0573ZM18.8591 24.284L7.52123 16.4397C7.51899 16.4381 7.51635 16.4373 7.51412 16.4358L3.36114 13.5629L45.6329 2.17014L61.1394 12.8839L18.8591 24.284Z" fill="white"/>
<path d="M41.1002 5.43506L28.4009 9.09408C28.023 9.20299 27.7389 9.5159 27.6666 9.90237C27.5942 10.2892 27.7462 10.6834 28.0591 10.9216L33.0124 14.6903C33.1957 14.8297 33.4172 14.9028 33.6423 14.9028C33.7362 14.9028 33.8309 14.8902 33.9235 14.8642L47.158 11.1504C47.5477 11.0406 47.8391 10.7151 47.9037 10.3148C47.9683 9.91537 47.7952 9.51387 47.46 9.28711L41.9714 5.57323C41.7158 5.40012 41.3972 5.34973 41.1002 5.43506ZM33.8601 12.721L30.9672 10.5201L41.2087 7.56936L44.4361 9.75323L33.8601 12.721Z" fill="white"/>
<path d="M23.5731 11.3592C23.1115 11.0174 22.4601 11.1154 22.1183 11.577C21.7765 12.0387 21.8741 12.6901 22.3361 13.0319L29.5444 18.3635C29.7306 18.5013 29.9471 18.5675 30.1621 18.5675C30.4807 18.5675 30.7953 18.4216 30.9993 18.1457C31.341 17.6841 31.2435 17.0326 30.7814 16.6909L23.5731 11.3592Z" fill="white"/>
<path d="M18.6482 12.6156C18.1862 12.2734 17.5348 12.3714 17.1934 12.8334C16.8516 13.2951 16.9492 13.9465 17.4112 14.2882L24.6199 19.6199C24.8061 19.7577 25.0227 19.8239 25.2376 19.8239C25.5562 19.8239 25.8708 19.678 26.0748 19.4021C26.4165 18.9405 26.319 18.289 25.857 17.9473L18.6482 12.6156Z" fill="white"/>
<path d="M13.7238 13.8722C13.2621 13.53 12.6103 13.628 12.2689 14.09C11.9272 14.5517 12.0247 15.2031 12.4867 15.5448L19.6951 20.8765C19.8812 21.0143 20.0978 21.0805 20.3127 21.0805C20.6313 21.0805 20.9459 20.9346 21.1499 20.6587C21.4916 20.197 21.3941 19.5456 20.9321 19.2039L13.7238 13.8722Z" fill="white"/>
</svg>
