<svg width="51" height="47" viewBox="0 0 51 47" fill="none" xmlns="http://www.w3.org/2000/svg">
<path d="M51 5.50208C51 2.46535 48.5346 0 45.4979 0H5.50207C2.46535 0 0 2.46535 0 5.50208V41.0539C0 44.0907 2.46535 46.556 5.50207 46.556H45.4979C48.5346 46.556 51 44.0907 51 41.0539V5.50208ZM5.50207 2.53942H45.4979C47.1274 2.53942 48.4606 3.86203 48.4606 5.49149V13.332H2.53942V5.49149C2.53942 3.86203 3.87261 2.53942 5.50207 2.53942ZM45.4979 44.0166H5.50207C3.87261 44.0166 2.53942 42.694 2.53942 41.0645V15.8714H48.4606V41.0645C48.4606 42.694 47.1274 44.0166 45.4979 44.0166Z" fill="white"/>
<path d="M8.94085 11.639C10.8983 11.639 12.4855 10.0201 12.4855 8.04148C12.4855 6.06285 10.8983 4.44397 8.94085 4.44397C6.98338 4.44397 5.39624 6.05227 5.39624 8.04148C5.39624 10.0307 6.98338 11.639 8.94085 11.639ZM8.94085 6.98339C9.49105 6.98339 9.94603 7.45953 9.94603 8.04148C9.94603 8.62343 9.49105 9.09957 8.94085 9.09957C8.39064 9.09957 7.93566 8.62343 7.93566 8.04148C7.93566 7.45953 8.39064 6.98339 8.94085 6.98339Z" fill="white"/>
</svg>
